<svg width="103" height="93" viewBox="0 0 103 93" fill="none" xmlns="http://www.w3.org/2000/svg">
<path d="M5 91L101 91" stroke="#6C6767" stroke-width="3" stroke-linecap="round"/>
<path d="M5.16162 47.6083H15.2155L52.0797 12.7327L88.525 47.6083H97.741L52.0797 3L5.16162 47.6083Z" fill="#F4C7C4" stroke="#6C6767" stroke-width="4"/>
<path d="M88.9439 89.7833L89.3628 47.2026" stroke="#6C6767" stroke-width="4"/>
<path d="M14.7964 89.7833L15.2153 47.2026" stroke="#6C6767" stroke-width="4"/>
<path d="M50.3477 32.6424L51.5008 58.1609L46.8686 57.9049C39.6168 54.5149 40.0597 47.8522 43.4274 40.0567C46.1216 33.8203 49.1635 32.5154 50.3477 32.6424Z" fill="#C1D4C1"/>
<path d="M52.0805 90.1889L51.4218 59.3686M50.8238 31.3871C51.9409 30.9816 54.8454 31.5493 57.5264 37.0645C57.831 37.6912 58.1421 38.3715 58.4457 39.0921M50.8238 31.3871C46.6349 33.0093 42.0267 40.3087 41.6078 48.8248C41.2726 55.6377 48.0108 58.6927 51.4218 59.3686M50.8238 31.3871L51.1358 45.9861M51.4218 59.3686L51.1358 45.9861M51.4218 59.3686C63.7712 57.5252 61.4819 46.2978 58.4457 39.0921M51.1358 45.9861L58.4457 39.0921" stroke="#6C6767" stroke-width="3"/>
<path d="M76.8385 55.0717L58.7969 73.7105L55.7476 70.3253C53.1814 62.9358 58.4122 58.5843 66.5243 55.4653C73.0139 52.97 76.1044 54.1632 76.8385 55.0717Z" fill="#C1D4C1"/>
<path d="M51.6606 80.8619L66.9809 66.2627M78.471 55.3135C79.4484 55.9894 81.0682 58.2333 79.7277 61.802C79.1661 63.2972 78.1808 65.9769 76.6301 68.6959M78.471 55.3135C76.7995 52.4748 60.4578 54.0969 56.2687 62.613C52.9174 69.4259 57.1065 74.6438 59.62 76.4011C68.2535 79.6363 73.5542 74.0889 76.6301 68.6959M78.471 55.3135L66.9809 66.2627M66.9809 66.2627L76.6301 68.6959" stroke="#6C6767" stroke-width="4"/>
<path d="M25.4351 56.3024L45.2041 73.2197L41.7971 76.2686C34.2415 78.9661 29.5965 74.0308 26.1406 66.2716C23.3759 60.0642 24.5183 57.0391 25.4351 56.3024Z" fill="#C1D4C1"/>
<path d="M51.6611 81.2671L37.4181 67.4321M24.8783 55.2515C23.9356 55.9274 22.3736 58.1713 23.6663 61.74C25.2822 66.2008 30.534 81.2054 43.0573 76.3391C45.4812 74.5818 49.521 69.3639 46.2891 62.551C45.038 59.9135 42.6626 57.9372 39.9316 56.5499M24.8783 55.2515C25.9909 53.292 33.8447 53.458 39.9316 56.5499M24.8783 55.2515L37.4181 67.4321M39.9316 56.5499L37.4181 67.4321" stroke="#6C6767" stroke-width="4"/>
</svg>
