<svg width="47" height="47" viewBox="0 0 47 47" fill="none" xmlns="http://www.w3.org/2000/svg">
<ellipse cx="23" cy="23.5" rx="23" ry="23.5" fill="#607D33"/>
<path d="M18.5 37.5L32 45C34.5 44 38.1 42.7 42.5 35.5C46.9 28.3 46.3333 20.1667 45.5 17L34.5 15L37.5 24L34.5 32L27 37.5H18.5Z" fill="#476120"/>
<path d="M36.6 23.85C36.6 31.5351 30.6101 37.7 23.3 37.7C15.9898 37.7 10 31.5351 10 23.85C10 16.1649 15.9898 10 23.3 10C30.6101 10 36.6 16.1649 36.6 23.85Z" stroke="white" stroke-width="2"/>
<path d="M23.2998 37.0499C19.3398 33.0899 16.6997 30.0832 16.1498 28.2499C12.2998 18.8999 17.9831 11.9332 20.5498 10.6499L22.7498 10.0999M23.2998 37.0499C28.6165 33.1999 37.3798 24.8399 25.4998 11.1999L22.7498 10.0999M23.2998 37.0499C23.2998 25.1699 22.8414 14.8666 22.7498 10.0999M11.1998 16.1499C16.1498 17.2499 27.6998 18.6799 34.2998 15.5999M9.5498 23.2999C15.2331 24.2166 28.6898 25.3899 37.0498 22.7499M12.2998 32.6499C15.2331 30.4499 23.6298 27.4799 33.7498 33.1999" stroke="white" stroke-width="2"/>
</svg>
