<svg width="55" height="44" viewBox="0 0 55 44" fill="none" xmlns="http://www.w3.org/2000/svg">
<path d="M6.0001 4.5C5.2001 7.3 7.33343 9.33333 8.5001 10C9.00014 9.83333 10.2002 8.8 11.0002 6C11.8002 3.2 9.66681 1.16667 8.5001 0.5C8.0001 0.666667 6.8001 1.7 6.0001 4.5Z" fill="white"/>
<path d="M12.0002 8.5C9.20021 10.1 8.83355 13.5 9.00021 15C15.4002 14.6 16.3335 9.83333 16.0002 7.5C14.0002 7.5 12.5002 8.16667 12.0002 8.5Z" fill="white"/>
<path d="M9.00021 21C9.16688 19 10.9002 14.8 16.5002 14C16.1669 16.8333 14.2002 22.2 9.00021 21Z" fill="white"/>
<path d="M9.00021 28C8.66688 25.5 9.60021 20.5 16.0002 20.5C16.1669 22.3333 15.0002 26.4 9.00021 28Z" fill="white"/>
<path d="M9.50021 34C9.33355 31.6667 10.6002 27.1 17.0002 27.5C16.6669 29.6667 14.7002 34 9.50021 34Z" fill="white"/>
<path d="M7.50021 15C7.50021 12.1667 6.10021 6.7 0.500213 7.5C0.333546 9.83333 1.50021 14.6 7.50021 15Z" fill="white"/>
<path d="M7.50021 21C7.66695 18.6667 6.50038 14 0.500213 14C0.833617 16.3982 2.70038 21.1557 7.50021 21Z" fill="white"/>
<path d="M8.5001 27.5C8.33354 24.6667 6.50038 19.4 0.500213 21C0.833543 23.6667 2.90018 28.7 8.5001 27.5Z" fill="white"/>
<path d="M7.50021 34C7.50028 31.3333 6.10038 26.3 0.500213 27.5C0.500284 30 1.90038 34.8 7.50021 34Z" fill="white"/>
<path d="M10 35.5C9.19983 34.3 7.6666 35 7 35.5V43C8.2 44.6 9.5 43.6667 10 43V35.5Z" fill="white"/>
<path d="M24.5148 4C23.7147 6.8 25.8481 8.83333 27.0147 9.5C27.5148 9.33333 28.7149 8.3 29.5149 5.5C30.3149 2.7 28.1815 0.666667 27.0147 0C26.5147 0.166667 25.3148 1.2 24.5148 4Z" fill="white"/>
<path d="M30.5149 8C27.7149 9.6 27.3482 13 27.5149 14.5C33.9149 14.1 34.8482 9.33333 34.5149 7C32.5149 7 31.0149 7.66667 30.5149 8Z" fill="white"/>
<path d="M27.5149 20.5C27.6815 18.5 29.4149 14.3 35.0149 13.5C34.6815 16.3333 32.7149 21.7 27.5149 20.5Z" fill="white"/>
<path d="M27.5149 27.5C27.1815 25 28.1149 20 34.5149 20C34.6815 21.8333 33.5149 25.9 27.5149 27.5Z" fill="white"/>
<path d="M28.0149 33.5C27.8482 31.1667 29.1149 26.6 35.5149 27C35.1815 29.1667 33.2149 33.5 28.0149 33.5Z" fill="white"/>
<path d="M26.0149 14.5C26.0149 11.6667 24.6149 6.2 19.0149 7C18.8482 9.33333 20.0149 14.1 26.0149 14.5Z" fill="white"/>
<path d="M26.0149 20.5C26.1816 18.1667 25.015 13.5 19.0149 13.5C19.3483 15.8982 21.215 20.6557 26.0149 20.5Z" fill="white"/>
<path d="M27.0147 27C26.8482 24.1667 25.015 18.9 19.0149 20.5C19.3482 23.1667 21.4148 28.2 27.0147 27Z" fill="white"/>
<path d="M26.0149 33.5C26.0149 30.8333 24.615 25.8 19.0149 27C19.0149 29.5 20.415 34.3 26.0149 33.5Z" fill="white"/>
<path d="M28.5146 35C27.7145 33.8 26.1812 34.5 25.5146 35V42.5C26.7146 44.1 28.0146 43.1667 28.5146 42.5V35Z" fill="white"/>
<path d="M43.5148 4C42.7147 6.8 44.8481 8.83333 46.0147 9.5C46.5148 9.33333 47.7149 8.3 48.5149 5.5C49.3149 2.7 47.1815 0.666667 46.0147 0C45.5147 0.166667 44.3148 1.2 43.5148 4Z" fill="white"/>
<path d="M49.5149 8C46.7149 9.6 46.3482 13 46.5149 14.5C52.9149 14.1 53.8482 9.33333 53.5149 7C51.5149 7 50.0149 7.66667 49.5149 8Z" fill="white"/>
<path d="M46.5149 20.5C46.6815 18.5 48.4149 14.3 54.0149 13.5C53.6815 16.3333 51.7149 21.7 46.5149 20.5Z" fill="white"/>
<path d="M46.5149 27.5C46.1815 25 47.1149 20 53.5149 20C53.6815 21.8333 52.5149 25.9 46.5149 27.5Z" fill="white"/>
<path d="M47.0149 33.5C46.8482 31.1667 48.1149 26.6 54.5149 27C54.1815 29.1667 52.2149 33.5 47.0149 33.5Z" fill="white"/>
<path d="M45.0149 14.5C45.0149 11.6667 43.6149 6.2 38.0149 7C37.8482 9.33333 39.0149 14.1 45.0149 14.5Z" fill="white"/>
<path d="M45.0149 20.5C45.1816 18.1667 44.015 13.5 38.0149 13.5C38.3483 15.8982 40.215 20.6557 45.0149 20.5Z" fill="white"/>
<path d="M46.0147 27C45.8482 24.1667 44.015 18.9 38.0149 20.5C38.3482 23.1667 40.4148 28.2 46.0147 27Z" fill="white"/>
<path d="M45.0149 33.5C45.0149 30.8333 43.615 25.8 38.0149 27C38.0149 29.5 39.415 34.3 45.0149 33.5Z" fill="white"/>
<path d="M47.5146 35C46.7145 33.8 45.1812 34.5 44.5146 35V42.5C45.7146 44.1 47.0146 43.1667 47.5146 42.5V35Z" fill="white"/>
</svg>
